<svg width="211" height="89" viewBox="0 0 211 89" fill="none" xmlns="http://www.w3.org/2000/svg">
<path id="e" d="M44.2707 41.613C43.822 32.0423 36.9117 28.5397 29.5494 28.5813C21.6167 28.6247 15.2986 32.6828 14.2328 41.7831L44.2707 41.613ZM14.0459 48.5699C14.6531 57.832 21.0646 63.2712 29.8513 63.2228C35.936 63.1878 41.3351 60.6809 43.1148 55.2784L53.6328 55.22C51.653 66.1751 40.0375 69.9546 30.0398 70.008C11.8393 70.1097 3.71972 60.1371 3.64467 46.6168C3.56127 31.7271 11.8459 21.8946 29.9397 21.7912C44.3307 21.7111 54.9222 29.1851 55.0139 45.6277L55.0306 48.3381L14.0459 48.5699Z"/>
<path id="b" d="M81.2808 62.7457C90.7681 62.6923 97.198 55.8271 97.1396 45.5326C97.0812 35.238 90.5562 28.4429 81.0907 28.4962C71.6251 28.5496 65.1735 35.4148 65.2302 45.7094C65.287 56.0039 71.8586 62.7974 81.2808 62.7457ZM54.7739 3.70063L64.9751 3.64392L65.1168 29.2785C70.0839 23.2939 76.9592 21.5226 83.7427 21.4825C95.1131 21.4208 107.781 29.0183 107.874 45.5909C107.95 59.4182 97.9652 69.621 83.8194 69.6994C76.3754 69.7427 69.4351 67.1224 65.1085 61.8917C65.1196 63.9704 65.0138 66.048 64.7916 68.1148L54.7939 68.1715C54.9441 64.9774 55.1025 60.8926 55.0842 57.6268L54.7739 3.70063Z"/>
<path id="a" d="M132.55 46.5584C123.296 46.9186 117.563 48.6082 117.597 54.7029C117.618 58.6476 120.832 62.9075 128.772 62.8608C139.472 62.8024 145.161 56.9296 145.108 47.3673V46.3048C141.351 46.3382 136.703 46.3949 132.55 46.5584ZM155.372 59.0779C155.389 62.0435 155.491 64.9791 155.759 67.5844L146.272 67.6378C146.025 65.5201 145.899 63.39 145.897 61.2579C140.806 67.5961 134.708 69.4458 126.243 69.4942C113.68 69.5642 106.92 62.9642 106.877 55.2867C106.815 44.1699 115.94 40.1935 131.819 39.7448C136.156 39.6247 141.041 39.578 145.071 39.5513V38.4889C145.028 31.0448 140.234 28.0059 131.971 28.0526C125.833 28.0876 121.349 30.6562 120.874 35.0579L110.143 35.1163C111.218 24.1646 122.702 21.3241 132.818 21.2724C144.933 21.2057 155.179 25.4556 155.249 38.272L155.372 59.0779Z"/>
<path id="y" d="M156.997 36.7643L149.491 22.817L161.424 22.7502L179.085 57.6469L196.312 22.5868L207.13 22.5067L175.928 84.6392L164.503 84.7042L173.48 67.4444L156.989 36.7659"/>
<path id="outline" d="M 64.974609 3.6445312 L 54.773438 3.7011719 L 55.025391 47.291016 L 55.013672 45.626953 C 54.921972 29.18437 44.330439 21.710916 29.939453 21.791016 C 11.845671 21.894416 3.5611313 31.727502 3.6445312 46.617188 C 3.7195812 60.137474 11.838581 70.109512 30.039062 70.007812 C 40.036753 69.954413 51.653014 66.175792 53.632812 55.220703 L 43.115234 55.279297 C 41.335536 60.681791 35.936256 63.187656 29.851562 63.222656 C 21.064871 63.271056 14.654074 57.832403 14.046875 48.570312 L 55.03125 48.337891 L 55.083984 57.626953 C 55.102284 60.89275 54.943169 64.977778 54.792969 68.171875 L 64.791016 68.115234 C 65.013215 66.048436 65.120475 63.971276 65.109375 61.892578 C 69.435971 67.123273 76.37632 69.742519 83.820312 69.699219 C 97.966098 69.620819 107.94905 59.419083 107.87305 45.591797 C 107.78005 29.019213 95.112576 21.420722 83.742188 21.482422 C 76.958694 21.522522 70.084283 23.294703 65.117188 29.279297 L 64.974609 3.6445312 z M 132.81836 21.271484 C 122.70237 21.323184 111.21758 24.165498 110.14258 35.117188 L 120.87305 35.058594 C 121.34805 30.656898 125.83271 28.087734 131.9707 28.052734 C 140.23369 28.006034 145.02731 31.044189 145.07031 38.488281 L 145.07031 39.550781 C 141.04032 39.577481 136.15536 39.624041 131.81836 39.744141 C 115.93938 40.19284 106.81495 44.17032 106.87695 55.287109 C 106.91995 62.964602 113.6792 69.564141 126.24219 69.494141 C 134.70718 69.445741 140.80549 67.596006 145.89648 61.257812 C 145.89848 63.38991 146.02448 65.520974 146.27148 67.638672 L 155.75977 67.583984 C 155.49177 64.978687 155.38809 62.043722 155.37109 59.078125 L 155.24805 38.271484 C 155.17805 25.455097 144.93335 21.204784 132.81836 21.271484 z M 207.13086 22.505859 L 196.3125 22.585938 L 179.08594 57.646484 L 161.42383 22.75 L 149.49023 22.816406 L 156.99609 36.763672 L 156.98828 36.765625 L 173.48047 67.445312 L 164.50391 84.705078 L 175.92773 84.638672 L 207.13086 22.505859 z M 81.089844 28.496094 C 90.555334 28.442794 97.080272 35.238613 97.138672 45.533203 C 97.197072 55.827693 90.768541 62.692694 81.28125 62.746094 C 71.859059 62.797794 65.287269 56.003474 65.230469 45.708984 C 65.173769 35.414395 71.624253 28.549494 81.089844 28.496094 z M 29.548828 28.582031 C 36.911121 28.540431 43.822785 32.042591 44.271484 41.613281 L 14.232422 41.783203 C 15.298221 32.682912 21.616136 28.625431 29.548828 28.582031 z M 145.10742 46.304688 L 145.10742 47.367188 C 145.16042 56.929478 139.47147 62.802928 128.77148 62.861328 C 120.83149 62.908028 117.61866 58.647821 117.59766 54.703125 C 117.56366 48.608431 123.29679 46.918793 132.55078 46.558594 C 136.70378 46.395094 141.35043 46.338087 145.10742 46.304688 z "/>
</svg>
