<svg xmlns="http://www.w3.org/2000/svg" viewBox="0 0 260.81 74.36" width="260.81" height="74.36" preserveAspectRatio="xMidYMid meet" ><defs><linearGradient id="a" x1=".81" x2=".29" y1=".07" y2="1.06"><stop offset="0%" stop-color="#F05379"/><stop offset="19.87%" stop-color="#F05379"/><stop offset="27.57%" stop-color="#F05379"/><stop offset="84.43%" stop-color="#F6A6BA"/><stop offset="100%" stop-color="#F6A6BA"/></linearGradient><linearGradient id="b" x1=".91" x2=".39" y1=".64" y2=".31"><stop offset="0%" stop-color="#99EDF1" stop-opacity=".4"/><stop offset="0%" stop-color="#85E9EE" stop-opacity=".48"/><stop offset="100%" stop-color="#00D2DC"/></linearGradient></defs><g stroke-width="4" paint-order="markers stroke fill"><path id="wordmark" d="M244.75 63.99V5.09c0-.46.37-.84.82-.84h6a5.25 5.25 0 0 1 5.24 5.26v58.93a.84.84 0 0 1-.83.83h-6a5.25 5.25 0 0 1-5.23-5.26m-101.6-22.13v26.08a1.3 1.3 0 0 1-1.3 1.3h-4.86a5.68 5.68 0 0 1-5.68-5.68v-19.2c0-6.3-3.58-10.54-9.07-10.54-6.72 0-11.13 4.52-11.13 15.5v18.6a1.3 1.3 0 0 1-1.3 1.31h-4.86a5.68 5.68 0 0 1-5.68-5.68V5.69c0-.72.58-1.32 1.3-1.32h4.87a5.68 5.68 0 0 1 5.67 5.7v18.28c3.5-3.52 8.17-5.4 14.1-5.4 10.77 0 17.95 7.74 17.95 18.9M160 41.6h21.64c-1.52-5.77-5.84-8.29-10.6-8.29-4.48 0-9.6 2.7-11.04 8.29m32.44 8.37h-32.8c1.18 6.5 5.76 10.03 11.22 10.03 3.33 0 7.24-.18 10.42-4.94.29-.45.83-.7 1.36-.58l8.1 1.72c.83.17 1.3 1.09.93 1.84-4.14 8.36-11.55 12.14-20.8 12.14-12.66 0-22.98-9.22-22.98-23.36 0-14.15 10.32-23.88 23.16-23.88 11.93 0 22.26 9.28 22.7 22.98v2.74a1.3 1.3 0 0 1-1.3 1.31m34.76 1.09v-.54h-13.1c-3.78 0-6.3 2.07-6.3 5.14 0 3.33 3.05 5.49 7.64 5.49 6.27 0 11.76-4.33 11.76-10.1m11.3-11.16v28.06a1.31 1.31 0 0 1-1.3 1.31h-6.34a3.68 3.68 0 0 1-3.66-3.69c-3.06 2.98-7.55 4.6-13.65 4.6-10.23 0-17.06-5.42-17.06-14.25 0-8.66 6.47-14.43 17.78-14.43h12.93v-.72c0-4.5-3.06-7.57-7.64-7.57-2.3 0-6.94-.1-8.11 3.65a1.3 1.3 0 0 1-1.49.87l-8.03-1.59a1.33 1.33 0 0 1-.98-1.7c2.25-7.94 10.88-11.5 17.9-11.5 11.84 0 19.65 6.04 19.65 16.94"/><path id="heart_bottom" d="M60.16 4c-4.84 0-9.63 1.89-13.08 5.88a187.2 187.2 0 0 0-7.49 9.29c-.06.1-6.75 10.21-14 13.7h.02a17.03 17.03 0 0 1-5.52 1.94 19.17 19.17 0 0 1-15-3.69.67.67 0 0 0-1.07.67 57.66 57.66 0 0 0 7.16 17.83C24.1 71.37 38.63 70.35 38.63 70.35h.59c3.39 0 20.77-1.4 36.89-27.61a29.07 29.07 0 0 0 4.39-15.19v-.22c-.03-7.24-2.84-13.83-7.05-17.93A19.12 19.12 0 0 0 60.17 4Z"/><path id="heart_top" d="M20.24 4c-2.25.01-4.56.51-6.88 1.52C7.92 7.88 4.14 14.48 4 23.55c0 .78.27 1.55.78 2.15 2.7 3.1 7.77 7.1 15.57 5.88 5.27-.83 9.78-5.24 12.94-9.36 0 0 1.8-2.49 3-5.79.12-.36.19-.73.19-1.1v-.08c0-.67-.22-1.33-.6-1.89-4.16-5.99-9.6-9.33-15.47-9.36Z"/></g></svg>