<svg xmlns="http://www.w3.org/2000/svg" viewBox="0 0 342.821 68.627" width="342.821" height="68.627" preserveAspectRatio="xMidYMid meet"><g stroke-width="4" paint-order="markers stroke fill"><path d="m46.036 44.937-3.022 18.866H4l.733-4.58 5.678-1.556 7.418-43.227-5.22-1.557.732-4.67h24.453l-.916 5.403-7.876 1.557-7.235 41.486 14.287 1.191 4.03-13.005zm19.201 19.69q-7.876 0-11.723-3.48-3.846-3.48-3.846-10.898 0-4.763 1.465-10.715 1.557-6.045 3.389-9.25 3.388-2.656 9.25-5.953 5.952-3.388 7.784-3.388 15.385 0 15.385 14.286 0 4.854-1.556 10.715-1.466 5.862-3.297 9.433-2.382 2.29-8.792 5.77-6.41 3.48-8.06 3.48zm1.007-5.953q.55 0 1.282-.183 1.19-.183 4.121-1.832 1.557-4.304 2.84-10.074 1.281-5.77 1.281-10.99 0-4.029-1.74-6.318-1.648-2.29-4.579-2.29-1.19 0-2.29.366-1.281.458-2.838 3.664-1.466 3.205-2.473 8.242-1.007 4.945-1.007 10.532 0 4.487 1.373 6.685 1.466 2.198 4.03 2.198zm44.35-20.239q4.762 3.113 7.601 5.86 2.93 2.657 2.93 6.137 0 1.099-.366 2.747-.274 1.649-.732 2.748-1.832 2.472-6.411 5.586-4.487 3.114-6.228 3.114-3.205 0-8.7-.55-5.495-.457-9.158-1.007l2.473-14.012h4.396l1.19 7.144q2.565.824 5.312 1.465 2.839.55 3.938.55.733 0 1.74-1.466 1.099-1.557 1.099-2.656 0-3.205-6.96-7.143-4.67-2.656-6.869-5.129-2.106-2.564-2.106-6.136 0-1.282.275-3.022.366-1.74 1.007-2.839 2.29-2.381 6.594-5.403 4.304-3.114 5.495-3.114 2.93 0 7.693.55 4.853.457 8.15 1.007l-2.38 12.455h-4.305l-1.282-6.044q-7.144-1.74-8.975-1.74-.733 0-1.649 1.19-.916 1.099-.916 2.84 0 1.648 1.374 2.93 1.465 1.282 3.297 2.38 1.832 1.1 2.473 1.558zm18.029-.916h22.162l-1.465 7.876h-22.163zm34.725 27.108q-.55 0-1.924-1.374-1.373-1.373-2.38-3.022-1.008-1.74-.916-2.656.549-4.304 4.67-29.306h-5.953l.641-3.938 6.503-2.656 7.876-8.975q.916 0 3.846 1.282l-1.282 8.334h8.7l-1.099 5.953h-8.608q-2.198 13.096-3.206 19.415-1.007 6.228-1.007 7.51 0 .916.275 1.374.274.458 1.007.55.641.182 7.235.182l-.55 5.22q-3.48.642-8.059 1.374-4.579.733-5.77.733zm35.684 0q-7.876 0-11.723-3.48-3.846-3.48-3.846-10.898 0-4.763 1.465-10.715 1.557-6.045 3.389-9.25 3.388-2.656 9.25-5.953 5.952-3.388 7.784-3.388 15.385 0 15.385 14.286 0 4.854-1.556 10.715-1.466 5.862-3.297 9.433-2.382 2.29-8.792 5.77-6.41 3.48-8.06 3.48zm1.007-5.953q.55 0 1.282-.183 1.19-.183 4.121-1.832 1.557-4.304 2.84-10.074 1.281-5.77 1.281-10.99 0-4.029-1.74-6.318-1.648-2.29-4.579-2.29-1.19 0-2.29.366-1.281.458-2.838 3.664-1.466 3.205-2.473 8.242-1.007 4.945-1.007 10.532 0 4.487 1.373 6.685 1.466 2.198 4.03 2.198zm50.944-12.73q.824 1.74 2.839 5.587 2.106 3.755 3.205 5.312l4.762 1.282-.55 3.663q-10.531 2.839-11.172 2.839-1.374 0-4.121-5.861-2.656-5.861-4.03-10.532l.733-4.304q3.755-1.008 6.502-4.03 2.84-3.022 2.84-6.32 0-1.098-.642-1.922-.55-.825-1.832-.825-.458 0-3.663 4.03-3.205 4.03-6.502 8.426l-2.107 12.455q-.091.366-.091 1.099 0 2.014 1.557 2.564l-.275 3.297q-9.433 1.923-10.074 1.923-.458 0-1.648-1.374-1.191-1.373-1.1-2.015l8.7-49.545-4.212-1.008.733-4.03q2.839-.823 6.777-1.74Q241.642 4 242.466 4q.457 0 1.556 1.465 1.191 1.466 1.1 2.015l-4.763 29.581h.55q2.29-3.938 3.022-5.22 5.953-10.532 6.502-10.532 12.272 0 12.272 9.25 0 5.586-3.388 9.25-3.297 3.571-8.334 6.135zm48.008-16.21q0 4.58-3.388 8.151-3.389 3.48-8.517 5.495-5.129 2.015-10.166 2.381-.091.824-.091 2.381 0 4.671 1.19 6.777 1.282 2.107 4.488 2.107 2.38 0 10.99-2.748l1.19 4.763q-3.48 1.648-9.066 3.663-5.495 1.923-6.96 1.923-6.045 0-9.617-3.846-3.571-3.847-3.571-10.074 0-5.22 1.465-11.173 1.557-6.045 3.48-9.25 2.198-2.106 8.7-5.495 6.594-3.48 8.334-3.48 5.22 0 8.334 2.015 3.205 1.923 3.205 6.41zm-15.935-2.29q-1.648.55-3.297 4.58-1.648 4.03-2.472 9.524 4.212-.732 7.6-3.754 3.481-3.023 3.481-6.869 0-1.832-.916-2.747-.916-1.008-2.564-1.008-1.1 0-1.832.275zm51.369 29.673 3.938 1.008-.641 4.03q-11.173 2.472-11.814 2.472-.458 0-1.649-1.374-1.19-1.373-1.099-2.015l4.488-24.177q.275-1.557.275-2.84 0-3.021-2.198-3.021-.733 0-7.51 8.975-.916 1.099-2.564 3.297l-2.107 12.272q-.091.366-.091 1.007 0 2.015 1.557 2.656l-.184 3.297q-9.432 1.923-10.073 1.923-.458 0-1.649-1.374-1.19-1.373-1.099-2.015l5.77-32.328-4.121-1.007.64-4.03q2.931-.824 6.87-1.648 4.029-.916 4.853-.916.458 0 1.557 1.465 1.099 1.466 1.007 2.015l-1.831 12.272h.55l1.373-2.473q.916-1.648 4.304-7.418 3.48-5.861 3.847-5.861 6.41 0 9.158 2.381 2.839 2.29 2.839 7.418 0 2.381-.55 5.678z"/></g></svg>