<svg xmlns="http://www.w3.org/2000/svg" viewBox="0 0 333.77 78.21" width="333.77" height="78.21" preserveAspectRatio="xMidYMid meet"><g stroke-width="4" paint-order="markers stroke fill"><path d="M156.35 29.62c-3.54 0-6.74.5-9.62 1.5-2.87.94-5.3 1.94-7.3 3l3.99 7.31a21.29 21.29 0 0 1 6.71-2.83c1.6-.39 3.29-.58 5.06-.58 1.16 0 2.21.11 3.15.33a6.3 6.3 0 0 1 2.4 1.08 4.4 4.4 0 0 1 1.58 1.92c.33.72.5 1.6.5 2.66v4.07a20.06 20.06 0 0 0-4.73-1.83c-1.82-.5-3.95-.74-6.38-.74-4.76 0-8.43 1.08-11.03 3.24-2.6 2.16-3.9 5.1-3.9 8.82 0 2.6.6 4.82 1.83 6.65a12.37 12.37 0 0 0 4.97 4.08c2.05.94 4.26 1.41 6.63 1.41 2.32 0 4.54-.42 6.64-1.25a12.09 12.09 0 0 0 5.97-4.8v5.22h10.36V41.76c0-2.6-.72-4.8-2.16-6.57a13.2 13.2 0 0 0-5.97-4.16 24.93 24.93 0 0 0-8.7-1.41zm-1.66 22.2a19.6 19.6 0 0 1 8.13 1.72v.03c0 1.83-.42 3.41-1.25 4.74a8.83 8.83 0 0 1-3.23 3 9.8 9.8 0 0 1-7.71.41 5.63 5.63 0 0 1-2.24-1.82 5.14 5.14 0 0 1-.83-2.92c0-1.1.25-2.02.75-2.74a4.5 4.5 0 0 1 2.32-1.75 10.6 10.6 0 0 1 4.06-.66z"/><path d="M255.57 30.62v24.45c0 4.55 1.1 8.12 3.31 10.73 2.27 2.6 5.67 3.91 10.2 3.91 2.71 0 5-.55 6.88-1.66a13.5 13.5 0 0 0 4.65-5v5.83h10.7V30.62h-10.7V53.9c0 1.6-.33 3-1 4.16a6.67 6.67 0 0 1-2.65 2.74 8.1 8.1 0 0 1-3.98.91c-2.21 0-3.82-.66-4.81-2-1-1.38-1.5-3.32-1.5-5.81V30.6Z"/><path d="M313.52 29.79c-2.54 0-4.86.41-6.96 1.24a10.76 10.76 0 0 0-4.9 3.58 9.02 9.02 0 0 0-1.82 5.74c0 2.38.53 4.35 1.58 5.9a13.2 13.2 0 0 0 4.14 3.66c1.66.9 3.37 1.67 5.14 2.33 1.88.61 3.43 1.2 4.65 1.75a7.7 7.7 0 0 1 2.73 1.91c.67.67 1 1.5 1 2.5 0 1.1-.39 2-1.16 2.66-.78.61-1.88.91-3.32.91-1.1 0-2.3-.22-3.57-.66a20.02 20.02 0 0 1-3.9-2 38.36 38.36 0 0 1-4.47-3.66l-5.22 6.74a37.92 37.92 0 0 0 4.8 3.91 24.52 24.52 0 0 0 13.51 3.9c4.38 0 7.8-1.04 10.3-3.15 2.48-2.16 3.72-5.16 3.72-8.98 0-2.33-.52-4.22-1.57-5.66a12.25 12.25 0 0 0-4.23-3.58 38.2 38.2 0 0 0-5.64-2.66 97.34 97.34 0 0 0-4.48-1.83 10.62 10.62 0 0 1-2.98-1.66 3.1 3.1 0 0 1-1-2.25c0-.94.33-1.63 1-2.08a5 5 0 0 1 2.9-.75c1.82 0 3.67.47 5.55 1.42a16.4 16.4 0 0 1 4.98 3.66l4.73-6.66a18.74 18.74 0 0 0-4.23-3.16 23.1 23.1 0 0 0-5.23-2.24 21.3 21.3 0 0 0-6.05-.83z"/><path d="M201.7 29.7c-2 0-3.93.72-5.81 2.17-1.27.93-2.38 2.1-3.32 3.5v-4.75h-10.53v38.26h10.53v-20.3c0-1.83.22-3.38.66-4.65a6.73 6.73 0 0 1 2.16-3.08 5.42 5.42 0 0 1 3.4-1.08c1.1 0 2.02.19 2.74.58a7.9 7.9 0 0 1 2.23 1.5l4.9-9.15a7.1 7.1 0 0 0-3.07-2.25c-1.22-.5-2.52-.75-3.9-.75z"/><path d="M70.73 7.74v61.14h10.52V32.51l18.67 29.12 18.67-29.12v36.37h10.51V7.74h-8.52l-20.66 34.2-20.66-34.2Z"/><path d="M213.05 4v64.88h10.36V49.39l15.76 19.49h12.77l-18.08-22.46 16.42-15.8h-12.85L223.4 44.1V4Z"/><path id="flag" d="M4 7.74h50.23v61.14L29.1 44.68 4 68.88z"/></g></svg>