<svg xmlns="http://www.w3.org/2000/svg" viewBox="0 0 75.77 19.69" width="286.38" height="74.44" preserveAspectRatio="xMidYMid meet"><style>:where(svg #grayscale){display: none;}</style><g id="wordmark" stroke-width="4"><path d="M26.22 18.4V2.21h5.76q1.86 0 3.14.55 1.3.56 1.95 1.7.67 1.17.67 2.97 0 1.83-.66 3.02-.66 1.18-1.93 1.75-1.27.57-3.1.57h-2.88v5.62Zm2.95-8.1h2.52q1.52 0 2.27-.7.76-.67.76-2.12 0-1.46-.77-2.13-.77-.67-2.33-.67h-2.45Z"/><path d="M41.74 18.63q-.93 0-1.7-.4-.75-.42-1.2-1.2-.46-.77-.46-1.87 0-.98.46-1.67.46-.7 1.2-1.17.75-.48 1.62-.74.87-.28 1.72-.4.85-.13 1.5-.16-.05-1-.5-1.44-.47-.45-1.58-.45-.77 0-1.5.22-.74.2-1.67.66l-.25-2.34q1.04-.5 2.08-.76 1.05-.26 2.13-.26 1.3 0 2.23.47.93.46 1.44 1.5.5 1 .5 2.7v3.1q0 .87.1 1.26.07.38.3.5.21.1.63.1h.37l-.26 2.35h-1.04q-.64 0-1.15-.17-.5-.17-.86-.47-.36-.3-.58-.7-.56.63-1.53 1-.96.34-2 .34zm1.2-2.2q.38 0 .95-.2.56-.2 1-.63v-2.63q-.8.03-1.6.26t-1.36.68q-.54.45-.54 1.14 0 .7.37 1.05.37.33 1.18.33z"/><path d="M53.72 18.63q-1.04 0-1.7-.4-.64-.42-.95-1.1-.32-.7-.32-1.53V1.06h2.87v13.36q0 .93.1 1.32.12.38.42.46.3.07.87.07l-.26 2.36z"/><path d="M62.3 18.63q-2.1 0-3.5-.83-1.39-.85-2.09-2.22-.7-1.4-.7-3.03 0-1.58.66-2.93.66-1.34 1.92-2.15 1.26-.82 3.07-.82 1.67 0 2.78.7 1.1.67 1.66 1.81.55 1.14.55 2.5 0 .4-.04.8-.05.37-.14.8H59q.16 1.06.67 1.73.52.66 1.26.97.75.3 1.6.3 1 0 1.88-.24.87-.27 1.6-.7l.14 2.43q-.66.35-1.65.6-.98.28-2.2.28zm-3.23-7.33h4.67q0-.52-.2-1.04-.2-.53-.65-.9-.45-.35-1.23-.35-1.1 0-1.74.65-.64.65-.85 1.64z"/><path d="M72.4 18.63q-1.08 0-1.77-.44-.68-.45-1-1.14-.33-.7-.33-1.45V9.2h-1.64l.26-2.36h1.38V4.3l2.87-.3v2.84h2.54V9.2h-2.54v5.22q0 .88.1 1.27.1.38.48.5.37.1 1.18.1h.78l-.25 2.34z"/></g><path id="grayscale" stroke-width="4" d="M6.78 1.07c-.4 0-.77.15-1.06.44L3.65 3.58 1.58 5.64c-.17.17-.3.38-.37.6-.1.2-.15.45-.15.7v5.83c0 .25.05.48.15.68.08.22.2.43.37.6l2.07 2.07 2.07 2.06c.6.6 1.55.6 2.14 0l2.07-2.06-4.44-4.44V8.02L9.93 3.6 7.86 1.52a1.51 1.51 0 0 0-1.08-.44zm3.15 2.5L14.36 8v3.67l-4.43 4.44 2.05 2.06c.6.6 1.55.6 2.15 0l4.13-4.13c.17-.17.3-.38.37-.6.1-.2.16-.43.16-.68V6.93c0-.24-.06-.48-.16-.7a1.58 1.58 0 0 0-.37-.6l-4.14-4.12a1.51 1.51 0 0 0-2.15 0z"/><g id="colors"><path fill="#ff0" d="M5.48 8 3.65 9.86l1.84 1.83zm8.88 0v3.68l1.83-1.83z"/><path fill="#0ff" d="M6.79 1.06c-.15 0-.31.03-.46.08-.5.25-.83.76-.83 1.36V8l4.43-4.43L7.87 1.5a1.51 1.51 0 0 0-1.08-.45Zm7.57 10.62L9.93 16.1l2.06 2.07c.42.42 1.02.54 1.54.37.5-.25.83-.76.83-1.35z"/><path fill="red" d="M13.53 1.14c.5.25.83.76.83 1.35V8l1.84 1.86 2.06-2.07c.6-.6.6-1.55 0-2.14L14.13 1.5a1.51 1.51 0 0 0-.6-.37ZM5.5 11.68 3.66 9.85 1.59 11.9a1.51 1.51 0 0 0 0 2.15l4.13 4.13c.18.17.38.3.6.37-.5-.26-.83-.76-.83-1.35v-5.52z"/><path fill="#f0f" d="M13.06 1.06c.16 0 .32.03.47.08.5.25.83.76.83 1.36V8L9.93 3.58l2.06-2.06c.3-.3.69-.45 1.07-.45zM5.5 11.68l4.43 4.43-2.06 2.07c-.43.42-1.02.54-1.55.37a1.5 1.5 0 0 1-.83-1.35Z"/><path fill="#0f0" d="M6.32 1.14c-.5.25-.83.76-.83 1.36V8L3.66 9.85 1.59 7.78a1.51 1.51 0 0 1 0-2.14l2.07-2.07L5.72 1.5c.18-.18.39-.3.6-.37Zm8.04 10.54 1.84-1.83 2.06 2.05c.6.6.6 1.55 0 2.15l-4.13 4.13c-.17.17-.38.3-.6.37.5-.25.83-.76.83-1.35z"/><path fill="#00f" d="M18.63 6.23a1.52 1.52 0 0 1 0 .02 1.56 1.56 0 0 0 0-.02zm0 .02a1.56 1.56 0 0 1 .07.44 1.52 1.52 0 0 1-.42 1.1L16.2 9.84l2.07 2.06a1.52 1.52 0 0 1 .37 1.54 1.52 1.52 0 0 0 .15-.68V6.93a1.52 1.52 0 0 0-.15-.67Zm-17.4-.02a1.52 1.52 0 0 0-.17.7v5.83a1.52 1.52 0 0 0 .17.68 1.56 1.56 0 0 1-.07-.46 1.52 1.52 0 0 1 .46-1.08l2.05-2.06L1.6 7.77a1.52 1.52 0 0 1-.37-1.54Z"/></g></svg>