<svg xmlns="http://www.w3.org/2000/svg" viewBox="0 16 304.226 66" height="102" width="304.226" preserveAspectRatio="xMidYMid meet"><path d="M27.11 18 5.324 32.733 4 72.265l25.087 8.498L61.08 98l14.691-9.932-13.124-4.71-22.538-8.165 9.284-5.941 1.486-43.206Zm195.301 1.178L205 30.316l-.576 12.852-7.66 8.985 7.627-.086-1.07 25.536 8.905 4.403 8.729-6.549-6.233-4.879.527-19.24 5.296-.11 8.454-8.68-13.676.177.59-13.07 13.822 3 8.775-7.248zm-51.205 4.641-11.884 8.046-.116 7.16-15.978-2.95-15.862 10.57v14.76l14.853 5.277v8.798l-8.729-4.907-9.205 6.146-18.12-6.979.17-9.342 18.151-5.261.583-8.541-11.605-10.683-18.06 11.55-1.041 28.06 21.63 6.93 8.285-5.519 12.811 5.602L154.6 73.48l-.125-15.074-15.228-5.076.25-11.069 11.654 3.47 8.053-6.59-.625 39.088 10.277 4.306 10.932-7.18-8.335-4.06.125-23.89 9.655-7-9.842-.06zM19.434 27.78 35.9 32.857l-.292 37.717-16.668-5.407zm42.12 8.438L50.32 44.244l5.916 2.743-1.025 29.155 11.018 4.003 10.018-3.57 7.879 5.852 10.293-6.833-6.263-5.58.579-27.853-6.477-5.944-10.458 7.75 4.907 3.145-.578 25.378-8.558-3.467.695-26.987zm225.728.055-12.62 6.632-7.964-5.993-9.227 7.212 5.88 5.456-.956 26.642-6.407-5.738-.033-28.454-15.402-5.458-8.925 3.685-6.9 10.506 10.715.016 4.543-6.68 6.593 4.768-.535 3.512-21.656 11.124-1.521 13.462 8.634 5.011 13.927-5.386 8.745 5.359 8.217-5.593-.048 1.364 5.661 4.328 11.692-5.539-5.204-5.523.37-24.385 9.15 4.12-.245 27.128 6.454 4.225 10.006-5.752-4.912-4.958.095-29.226zm-180.698 7.229 7.757 4.372-7.923 7.761zm138.4 17.966-.66 10.68-12.474-2.923zm-54.685 6.336a6.819 6.819 0 0 0-6.819 6.819 6.819 6.819 0 0 0 6.82 6.819 6.819 6.819 0 0 0 6.818-6.82 6.819 6.819 0 0 0-6.819-6.818z" stroke-width="4" paint-order="markers stroke fill"/></svg>